<?xml version="1.0" encoding="UTF-8"?>
<svg version="1.1" xmlns="http://www.w3.org/2000/svg" width="64" height="64">
<path d="M0 0 C0.91517395 -0.00807175 1.8303479 -0.01614349 2.77325439 -0.02445984 C4.7134003 -0.03830504 6.65357061 -0.04902524 8.59375 -0.05688477 C11.55255748 -0.07407025 14.51023967 -0.11794882 17.46875 -0.16210938 C19.35415845 -0.17223876 21.23957641 -0.1807541 23.125 -0.1875 C24.00645691 -0.20500809 24.88791382 -0.22251617 25.79608154 -0.24055481 C31.31606657 -0.22119053 34.45282329 0.5536173 38.828125 4.23828125 C43.65319636 9.71538928 44.00701775 13.25843737 44.06640625 20.41015625 C44.074478 21.3253302 44.08254974 22.24050415 44.09086609 23.18341064 C44.10471129 25.12355655 44.11543149 27.06372686 44.12329102 29.00390625 C44.1404765 31.96271373 44.18435507 34.92039592 44.22851562 37.87890625 C44.23864501 39.7643147 44.24716035 41.64973266 44.25390625 43.53515625 C44.27141434 44.41661316 44.28892242 45.29807007 44.30696106 46.20623779 C44.28759678 51.72622282 43.51278895 54.86297954 39.828125 59.23828125 C34.35101697 64.06335261 30.80796888 64.417174 23.65625 64.4765625 C22.74107605 64.48463425 21.8259021 64.49270599 20.88299561 64.50102234 C18.9428497 64.51486754 17.00267939 64.52558774 15.0625 64.53344727 C12.10369252 64.55063275 9.14601033 64.59451132 6.1875 64.63867188 C4.30209155 64.64880126 2.41667359 64.6573166 0.53125 64.6640625 C-0.35020691 64.68157059 -1.23166382 64.69907867 -2.13983154 64.71711731 C-7.65981657 64.69775303 -10.79657329 63.9229452 -15.171875 60.23828125 C-19.99694636 54.76117322 -20.35076775 51.21812513 -20.41015625 44.06640625 C-20.418228 43.1512323 -20.42629974 42.23605835 -20.43461609 41.29315186 C-20.44846129 39.35300595 -20.45918149 37.41283564 -20.46704102 35.47265625 C-20.4842265 32.51384877 -20.52810507 29.55616658 -20.57226562 26.59765625 C-20.58239501 24.7122478 -20.59091035 22.82682984 -20.59765625 20.94140625 C-20.61516434 20.05994934 -20.63267242 19.17849243 -20.65071106 18.27032471 C-20.63134678 12.75033968 -19.85653895 9.61358296 -16.171875 5.23828125 C-10.69476697 0.41320989 -7.15171888 0.0593885 0 0 Z M-13.484375 9.73828125 C-16.35950571 13.99773415 -16.34527426 17.79590386 -16.375 22.7578125 C-16.38070007 23.49400314 -16.38640015 24.23019379 -16.39227295 24.98869324 C-16.40171256 26.54623991 -16.40825281 28.10380645 -16.41210938 29.66137695 C-16.42179731 32.03177211 -16.45282175 34.40129328 -16.484375 36.77148438 C-16.49090741 38.28775529 -16.49615695 39.80403238 -16.5 41.3203125 C-16.5123468 42.02364212 -16.5246936 42.72697174 -16.53741455 43.45161438 C-16.51650343 48.12402102 -15.6224245 51.26875682 -13.171875 55.23828125 C-8.18104862 59.85479565 -4.23049251 60.40199796 2.34765625 60.44140625 C3.08384689 60.44710632 3.82003754 60.4528064 4.57853699 60.4586792 C6.13608366 60.46811881 7.6936502 60.47465906 9.2512207 60.47851562 C11.62161586 60.48820356 13.99113703 60.519228 16.36132812 60.55078125 C17.87759904 60.55731366 19.39387613 60.5625632 20.91015625 60.56640625 C21.61348587 60.57875305 22.31681549 60.59109985 23.04145813 60.6038208 C27.71386477 60.58290968 30.85860057 59.68883075 34.828125 57.23828125 C39.4446394 52.24745487 39.99184171 48.29689876 40.03125 41.71875 C40.03980011 40.61446404 40.03980011 40.61446404 40.04852295 39.48786926 C40.05796256 37.93032259 40.06450281 36.37275605 40.06835938 34.81518555 C40.07804731 32.44479039 40.10907175 30.07526922 40.140625 27.70507812 C40.14715741 26.18880721 40.15240695 24.67253012 40.15625 23.15625 C40.1685968 22.45292038 40.1809436 21.74959076 40.19366455 21.02494812 C40.17275343 16.35254148 39.2786745 13.20780568 36.828125 9.23828125 C31.83729862 4.62176685 27.88674251 4.07456454 21.30859375 4.03515625 C20.57240311 4.02945618 19.83621246 4.0237561 19.07771301 4.0178833 C17.52016634 4.00844369 15.9625998 4.00190344 14.4050293 3.99804688 C12.03463414 3.98835894 9.66511297 3.9573345 7.29492188 3.92578125 C5.77865096 3.91924884 4.26237387 3.9139993 2.74609375 3.91015625 C2.04276413 3.89780945 1.33943451 3.88546265 0.61479187 3.8727417 C-5.36781221 3.89951654 -9.40809196 5.33148878 -13.484375 9.73828125 Z " fill="#808080" transform="translate(20.171875,-0.23828125)"/>
<path d="M0 0 C4.06575732 2.78278501 6.44877969 6.51242408 7.7578125 11.203125 C8.38235442 17.5526345 7.38219806 21.90775649 3.7578125 27.203125 C-0.48018964 31.33246042 -4.19383701 33.0016479 -10.0546875 33.578125 C-15.97174366 33.41034458 -20.53655868 30.95363879 -24.6171875 26.765625 C-27.82492816 21.70726473 -29.1412835 17.23039819 -28.2421875 11.203125 C-26.10990641 4.85238512 -22.84351758 1.14978991 -16.9296875 -2.046875 C-10.52091461 -3.83536976 -5.71802328 -3.18415414 0 0 Z M-22.1171875 8.453125 C-23.60969824 12.10148458 -23.92115424 15.35564681 -23.2421875 19.203125 C-21.02082187 23.56358347 -18.80651721 26.33589921 -14.2421875 28.203125 C-9.41495658 28.73948399 -7.26327964 28.72330401 -2.9296875 26.515625 C1.2248006 22.94083291 2.58423029 20.76536489 3.1953125 15.265625 C3.01775377 10.9880737 1.56794996 8.46896042 -1.2421875 5.203125 C-4.7043836 2.31796158 -7.73015634 1.66394635 -12.25 1.8515625 C-16.62673516 2.62392753 -19.3561371 5.13986452 -22.1171875 8.453125 Z " fill="#808080" transform="translate(42.2421875,16.796875)"/>
<path d="M0 0 C3.0625 0.4375 3.0625 0.4375 5.0625 2.625 C6.0625 5.4375 6.0625 5.4375 5.3125 8.1875 C4.0625 10.4375 4.0625 10.4375 3.0625 11.4375 C0.1875 11.75 0.1875 11.75 -2.9375 11.4375 C-4.875 9.75 -4.875 9.75 -5.9375 7.4375 C-5.61572659 2.93267219 -4.72005079 0.70298629 0 0 Z " fill="#808080" transform="translate(49.9375,7.5625)"/>
</svg>
