<?xml version="1.0" encoding="UTF-8"?>
<svg version="1.1" xmlns="http://www.w3.org/2000/svg" width="64" height="64">
<path d="M0 0 C-0.33 2.31 -0.66 4.62 -1 7 C-0.01 7.66 0.98 8.32 2 9 C1.10229008 14.64274809 1.10229008 14.64274809 0.4765625 16.828125 C-0.12484044 19.56894495 -0.11532636 22.19553838 -0.1875 25 C-0.89272471 34.6561537 -4.93707334 43.06736741 -12.140625 49.6015625 C-21.8306367 56.88942844 -33.32032845 57.00424742 -45 56 C-50.73532379 54.98356183 -56.14619951 53.23586699 -61 50 C-61 48.68 -61 47.36 -61 46 C-57.93146462 44.46573231 -54.70412079 44.61060127 -51.3125 44.37890625 C-48.81096367 44.19994102 -48.81096367 44.19994102 -47 42 C-47.55429687 41.73445313 -48.10859375 41.46890625 -48.6796875 41.1953125 C-49.40414062 40.84210937 -50.12859375 40.48890625 -50.875 40.125 C-51.95394531 39.60292969 -51.95394531 39.60292969 -53.0546875 39.0703125 C-55 38 -55 38 -57 36 C-56.773125 35.2575 -56.54625 34.515 -56.3125 33.75 C-55.64958891 30.71162828 -55.64958891 30.71162828 -58.375 27.8125 C-59.24125 26.884375 -60.1075 25.95625 -61 25 C-62.35439668 22.29120665 -62.06501451 19.99066732 -62 17 C-61.01 17 -60.02 17 -59 17 C-59.03480469 16.32453125 -59.06960937 15.6490625 -59.10546875 14.953125 C-59.13253906 14.06109375 -59.15960938 13.1690625 -59.1875 12.25 C-59.22230469 11.36828125 -59.25710937 10.4865625 -59.29296875 9.578125 C-58.94923684 6.55328417 -57.99772541 5.24416398 -56 3 C-52.44811991 4.45658241 -50.81363813 6.29360815 -48.5 9.3125 C-43.89976783 14.71428778 -38.62335159 16.80325505 -32 19 C-31.95875 17.824375 -31.9175 16.64875 -31.875 15.4375 C-31.25290026 10.43404067 -28.86414801 7.16313001 -25 4 C-20.45377479 1.69677994 -16.69979073 1.901133 -11.71875 2.125 C-7.44456826 1.9284859 -4.38286945 0 0 0 Z M-24 10 C-27.2840673 14.10508412 -27.56887766 17.91275633 -28 23 C-36.63887607 23.75120661 -44.19128298 20.18759392 -51 15 C-52.36886951 13.70317626 -53.7169291 12.38176866 -55 11 C-54.67 12.0725 -54.34 13.145 -54 14.25 C-53 18 -53 18 -53 22 C-53.99 22.66 -54.98 23.32 -56 24 C-52.60368557 26.85554839 -52.60368557 26.85554839 -48.75 29 C-47 30 -47 30 -46.25 32.125 C-46.12625 33.053125 -46.12625 33.053125 -46 34 C-46.99 34.33 -47.98 34.66 -49 35 C-46.57869669 37.42130331 -45.19888623 37.52840504 -41.875 38.125 C-40.96492188 38.29257812 -40.05484375 38.46015625 -39.1171875 38.6328125 C-38.41851562 38.75398438 -37.71984375 38.87515625 -37 39 C-37.94380512 42.22737959 -38.53539901 43.69153541 -41.3828125 45.58203125 C-42.28773437 45.98808594 -43.19265625 46.39414062 -44.125 46.8125 C-45.49011719 47.44091797 -45.49011719 47.44091797 -46.8828125 48.08203125 C-47.58148438 48.38496094 -48.28015625 48.68789063 -49 49 C-42.63092833 53.25740085 -31.15109643 51.77314171 -23.875 50.41796875 C-16.34791446 47.84229417 -11.61544 42.38123142 -7.6171875 35.68359375 C-4.30505539 28.65399867 -4.60409474 21.63217357 -5 14 C-5.99 13.67 -6.98 13.34 -8 13 C-8 11.35 -8 9.7 -8 8 C-16.58900986 6.38781876 -16.58900986 6.38781876 -24 10 Z " fill="#808080" transform="translate(62,4)"/>
</svg>
