<?xml version="1.0" encoding="UTF-8"?>
<svg version="1.1" xmlns="http://www.w3.org/2000/svg" width="64" height="64">
<path d="M0 0 C1.20366211 0.00483398 1.20366211 0.00483398 2.43164062 0.00976562 C3.68170898 0.02233398 3.68170898 0.02233398 4.95703125 0.03515625 C5.80201172 0.03966797 6.64699219 0.04417969 7.51757812 0.04882812 C9.6015928 0.06060222 11.68557102 0.07853735 13.76953125 0.09765625 C13.76953125 4.05765625 13.76953125 8.01765625 13.76953125 12.09765625 C10.46953125 12.42765625 7.16953125 12.75765625 3.76953125 13.09765625 C3.10953125 15.40765625 2.44953125 17.71765625 1.76953125 20.09765625 C5.06953125 20.09765625 8.36953125 20.09765625 11.76953125 20.09765625 C11.76953125 24.38765625 11.76953125 28.67765625 11.76953125 33.09765625 C8.46953125 33.09765625 5.16953125 33.09765625 1.76953125 33.09765625 C1.76953125 43.32765625 1.76953125 53.55765625 1.76953125 64.09765625 C-3.84046875 64.09765625 -9.45046875 64.09765625 -15.23046875 64.09765625 C-15.23046875 53.86765625 -15.23046875 43.63765625 -15.23046875 33.09765625 C-18.86046875 33.09765625 -22.49046875 33.09765625 -26.23046875 33.09765625 C-26.23046875 28.80765625 -26.23046875 24.51765625 -26.23046875 20.09765625 C-22.60046875 20.09765625 -18.97046875 20.09765625 -15.23046875 20.09765625 C-15.31296875 18.94265625 -15.39546875 17.78765625 -15.48046875 16.59765625 C-15.48046875 11.72006568 -13.93896939 8.10956505 -11.23046875 4.09765625 C-7.80073875 0.87578867 -4.64151977 -0.03291858 0 0 Z M-8.78125 7.25390625 C-10.95786928 10.02308226 -11.25737069 12.85633774 -11.91796875 16.28515625 C-12.16933594 17.55746094 -12.42070312 18.82976563 -12.6796875 20.140625 C-12.86144531 21.11644531 -13.04320312 22.09226562 -13.23046875 23.09765625 C-16.20046875 23.42765625 -19.17046875 23.75765625 -22.23046875 24.09765625 C-22.23046875 25.74765625 -22.23046875 27.39765625 -22.23046875 29.09765625 C-18.93046875 29.09765625 -15.63046875 29.09765625 -12.23046875 29.09765625 C-12.23046875 39.65765625 -12.23046875 50.21765625 -12.23046875 61.09765625 C-8.93046875 61.09765625 -5.63046875 61.09765625 -2.23046875 61.09765625 C-2.23046875 50.53765625 -2.23046875 39.97765625 -2.23046875 29.09765625 C1.39953125 29.09765625 5.02953125 29.09765625 8.76953125 29.09765625 C8.76953125 27.11765625 8.76953125 25.13765625 8.76953125 23.09765625 C5.13953125 23.09765625 1.50953125 23.09765625 -2.23046875 23.09765625 C-1.7692272 18.61702407 -1.32382753 14.47109139 -0.23046875 10.09765625 C3.06953125 9.43765625 6.36953125 8.77765625 9.76953125 8.09765625 C9.76953125 6.44765625 9.76953125 4.79765625 9.76953125 3.09765625 C2.47118665 2.74702404 -2.71997105 2.73466552 -8.78125 7.25390625 Z " fill="#808080" transform="translate(38.23046875,-0.09765625)"/>
</svg>
