<svg xmlns="http://www.w3.org/2000/svg" width="38px" height="38px" viewBox="0 0 38 38" fill="none">
  <path d="M12.2195 24.6521C11.9245 24.3571 11.8999 23.894 12.1457 23.571L12.2195 23.4866L22.4645 13.2425L15.0775 13.2576C14.6223 13.2586 14.2526 12.8904 14.2516 12.4352C14.2507 12.0214 14.5549 11.6782 14.9522 11.6185L15.074 11.6093L24.456 11.5891C24.516 11.589 24.5745 11.5952 24.6308 11.6073C24.6474 11.6113 24.6643 11.6155 24.6811 11.6202C24.6959 11.6239 24.7105 11.6284 24.7249 11.6333C24.7455 11.6408 24.7665 11.6489 24.7872 11.6579C24.8033 11.6646 24.8184 11.6718 24.8332 11.6794C24.8514 11.689 24.8704 11.6997 24.8891 11.7111C24.9022 11.719 24.9145 11.7269 24.9264 11.7353C24.9441 11.7478 24.962 11.7612 24.9793 11.7754C24.9928 11.7861 25.0055 11.7972 25.0179 11.8087C25.0253 11.8159 25.033 11.8233 25.0407 11.831L25.063 11.8538C25.0739 11.8657 25.0846 11.8779 25.0949 11.8904L25.0407 11.831C25.0774 11.8677 25.11 11.9071 25.1384 11.9485C25.1452 11.9584 25.152 11.9687 25.1585 11.9792C25.1719 12.0009 25.184 12.0226 25.1951 12.0447C25.2006 12.0556 25.2062 12.0675 25.2116 12.0796C25.2223 12.104 25.2316 12.1281 25.2398 12.1525C25.2436 12.164 25.2474 12.1762 25.2509 12.1886C25.2566 12.2088 25.2614 12.2286 25.2654 12.2485C25.2683 12.2626 25.271 12.2776 25.2732 12.2928L25.2749 12.3046C25.2797 12.3408 25.2821 12.3773 25.2821 12.4137L25.2819 12.415L25.2625 21.7977C25.2615 22.2529 24.8918 22.6211 24.4366 22.6202C24.0228 22.6193 23.6809 22.3137 23.6228 21.9161L23.6141 21.7943L23.6285 14.4096L13.3851 24.6521C13.0632 24.974 12.5414 24.974 12.2195 24.6521Z" fill="#808080"/>
</svg>